# xmcd
#
# Track frame offsets:
#	150
#	16180
#	30957
#	42752
#	62205
#	74080
#
# Disc length: 1265 seconds
#
# Revision: 0
# Processed by: cddbd v1.5.1PL2 Copyright (c) Steve Scherf et al.
# Submitted via: audiograbber 1.83.01
#
DISCID=4804ef06
DTITLE=All About The Blues - Too Tired
DYEAR=1996
DGENRE=Blues
TTITLE0=Too Tired
TTITLE1=I Can See Clearly Now
TTITLE2=Callin' Home
TTITLE3=Don't Touch Me
TTITLE4=Great Balls Of Fire
TTITLE5=Unchain My Heart
EXTD=Produced by Titus Wolf 1996 \n(C) All About The Blues 1996\nwww.allaboutth
EXTD=eblues.de
EXTT0=
EXTT1=
EXTT2=
EXTT3=
EXTT4=
EXTT5=
PLAYORDER=
